<?xml version="1.0" encoding="iso-8859-1"?>
<!-- Generator: Adobe Illustrator 19.0.0, SVG Export Plug-In . SVG Version: 6.00 Build 0)  -->
<svg version="1.1" id="Layer_1" xmlns="http://www.w3.org/2000/svg" xmlns:xlink="http://www.w3.org/1999/xlink" x="0px" y="0px"
	 width="100%" height="100%" viewBox="0 0 512 512" style="enable-background:new 0 0 512 512;" xml:space="preserve">
<g>
	<g>
		<path d="M456.348,380.652v-52.304c0-27.619-22.468-50.087-50.087-50.087H272.696v-45.855
			c56.544-8.145,100.174-56.777,100.174-115.536C372.87,52.429,320.445,0,256,0S139.13,52.429,139.13,116.87
			c0,58.759,43.63,107.391,100.174,115.536v45.855H105.739c-27.619,0-50.087,22.468-50.087,50.087v52.304
			c-28.753,7.444-50.087,33.516-50.087,64.565C5.565,482.044,35.522,512,72.348,512s66.783-29.956,66.783-66.783
			c0-31.049-21.334-57.121-50.087-64.565v-52.304c0-9.206,7.49-16.696,16.696-16.696h133.565v68.98
			c-28.758,7.442-50.087,33.533-50.087,64.586C189.217,482.044,219.174,512,256,512s66.783-29.956,66.783-66.783
			c0-31.053-21.329-57.143-50.087-64.586v-68.98h133.565c9.206,0,16.696,7.49,16.696,16.696v52.304
			c-28.753,7.445-50.087,33.516-50.087,64.565c0,36.826,29.956,66.783,66.783,66.783s66.783-29.956,66.783-66.783
			C506.435,414.168,485.101,388.096,456.348,380.652z"/>
	</g>
</g>
<g>
</g>
<g>
</g>
<g>
</g>
<g>
</g>
<g>
</g>
<g>
</g>
<g>
</g>
<g>
</g>
<g>
</g>
<g>
</g>
<g>
</g>
<g>
</g>
<g>
</g>
<g>
</g>
<g>
</g>
</svg>
