<svg width="16" height="16" version="1.1" viewBox="0 0 16 16.000001" xmlns="http://www.w3.org/2000/svg">
 <g transform="matrix(.29184 0 0 .29186 113 1)" style="stroke-width:3.4264">
  <g style="stroke-width:3.4264">
   <path d="m-355.54 23.986 18.864-18.864c1.172-1.171 1.172-3.071 0-4.242-1.172-1.172-3.07-1.172-4.242 0l-18.864 18.864-18.865-18.864c-1.172-1.172-3.07-1.172-4.242 0-1.172 1.171-1.172 3.071 0 4.242l18.865 18.864-18.865 18.864c-1.172 1.171-1.172 3.071 0 4.242 0.586 0.585 1.354 0.878 2.121 0.878s1.535-0.293 2.121-0.879l18.865-18.864 18.864 18.864c0.586 0.586 1.354 0.879 2.121 0.879s1.535-0.293 2.121-0.879c1.172-1.171 1.172-3.071 0-4.242z" style="stroke-width:3.4264"/>
  </g>
 </g>
</svg>
