<svg width="16" height="16" version="1.1" viewBox="0 0 16 16.000001" xmlns="http://www.w3.org/2000/svg">
 <g transform="translate(0 -1106.5)">
  <g transform="matrix(.027344 0 0 .027344 .99999 1107.5)" style="stroke-width:36.571">
   <g style="stroke-width:36.571">
    <g style="stroke-width:36.571">
     <path d="m505.94 6.058c-8.077-8.077-21.172-8.077-29.249 0l-470.64 470.64c-8.077 8.077-8.077 21.172 0 29.249 4.038 4.04 9.332 6.058 14.625 6.058s10.586-2.019 14.625-6.059l470.64-470.64c8.076-8.076 8.076-21.171 0-29.248z" style="stroke-width:36.571"/>
    </g>
   </g>
   <g style="stroke-width:36.571">
    <g style="stroke-width:36.571">
     <path d="m505.94 476.69-470.64-470.64c-8.076-8.077-21.172-8.077-29.248 0-8.077 8.076-8.077 21.171 0 29.248l470.64 470.64c4.038 4.039 9.332 6.058 14.625 6.058s10.587-2.019 14.624-6.057c8.075-8.078 8.075-21.173-1e-3 -29.25z" style="stroke-width:36.571"/>
    </g>
   </g>
  </g>
 </g>
</svg>
