<svg width="16" height="16" version="1.1" viewBox="0 0 16 16.000001" xmlns="http://www.w3.org/2000/svg">
 <g transform="translate(0 -1106.5)">
  <g transform="matrix(.028563 0 0 .028574 .68582 1107.2)" style="stroke-width:35.004">
   <g style="stroke-width:35.004">
    <g style="stroke-width:35.004">
     <path d="m191.8 480.6v-174.3l-177.3-263.5c-7.2-8.3-4.1-31.1 16.9-31.8h449.2c12.2 0 27.7 14.4 16.9 31.8l-177.3 263.5v108.2c0 6.4-3 12.4-8.1 16.3l-87.6 66.1c-5 5.6-30.1 9.3-32.7-16.3zm-122-428.8 159.4 236.9c2.3 3.4 3.5 7.3 3.5 11.4v139.6l46.8-35.3v-104.3c0-4.1 1.2-8 3.5-11.4l159.2-236.9z" style="stroke-width:35.004"/>
    </g>
   </g>
  </g>
 </g>
</svg>
