<svg width="16" height="16" version="1.1" viewBox="0 0 16 16.000001" xmlns="http://www.w3.org/2000/svg">
 <g transform="translate(0 -1106.5)">
  <g transform="matrix(.11885 0 0 .12111 .33447 1106.7)" style="stroke-width:8.3353">
   <g style="stroke-width:8.3353">
    <path d="m119.2 114.3h-109.4c-2.3 0-4.1 1.9-4.1 4.1s1.9 4.1 4.1 4.1h109.5c2.3 0 4.1-1.9 4.1-4.1s-1.9-4.1-4.2-4.1z" style="stroke-width:8.3353"/>
    <path d="m5.7 78-0.1 19.5c0 1.1 0.4 2.2 1.2 3s1.8 1.2 2.9 1.2l19.4-0.1c1.1 0 2.1-0.4 2.9-1.2l67-67c1.6-1.6 1.6-4.2 0-5.9l-19.2-19.4c-1.6-1.6-4.2-1.6-5.9 0l-13.4 13.5-53.6 53.5c-0.7 0.8-1.2 1.8-1.2 2.9zm71.2-61.1 13.5 13.5-7.6 7.6-13.5-13.5zm-62.9 62.9 49.4-49.4 13.5 13.5-49.4 49.3-13.6 0.1z" style="stroke-width:8.3353"/>
   </g>
  </g>
 </g>
</svg>
