<svg width="16" height="16" version="1.1" viewBox="0 0 16 16.000001" xmlns="http://www.w3.org/2000/svg">
 <g transform="translate(0 -1106.5)">
  <g transform="matrix(.29167 0 0 .28571 .85417 1107.5)" style="stroke-width:3.4641">
   <g style="stroke-width:3.4641">
    <rect x="27.5" y="5" width="6" height="10" style="stroke-width:3.4641"/>
    <path d="m39.914 0h-39.414v49h48v-40.414zm-29.414 2h26v16h-26zm29 45h-31v-21h31z" style="stroke-width:3.4641"/>
    <path d="m13.5 32h7c0.553 0 1-0.447 1-1s-0.447-1-1-1h-7c-0.553 0-1 0.447-1 1s0.447 1 1 1z" style="stroke-width:3.4641"/>
    <path d="m13.5 36h10c0.553 0 1-0.447 1-1s-0.447-1-1-1h-10c-0.553 0-1 0.447-1 1s0.447 1 1 1z" style="stroke-width:3.4641"/>
    <path d="m26.5 36c0.27 0 0.52-0.11 0.71-0.29 0.18-0.19 0.29-0.45 0.29-0.71s-0.11-0.521-0.29-0.71c-0.37-0.37-1.04-0.37-1.41 0-0.19 0.189-0.3 0.439-0.3 0.71 0 0.27 0.109 0.52 0.29 0.71 0.189 0.18 0.439 0.29 0.71 0.29z" style="stroke-width:3.4641"/>
   </g>
  </g>
 </g>
</svg>
