<svg width="16" height="16" version="1.1" viewBox="0 0 16 16.000001" xmlns="http://www.w3.org/2000/svg">
 <g transform="translate(0 -1106.5)">
  <g transform="matrix(0 .031049 -.031042 0 15 1107.5)" style="stroke-width:32.211">
   <g style="stroke-width:32.211">
    <path d="m447.05 428-109.6-109.6c29.4-33.8 47.2-77.9 47.2-126.1 0-106.1-86.3-192.3-192.3-192.3-106.1 0-192.3 86.3-192.3 192.3s86.3 192.3 192.3 192.3c48.2 0 92.3-17.8 126.1-47.2l109.6 109.6c2.6 2.6 6.1 4 9.5 4s6.9-1.3 9.5-4c5.2-5.2 5.2-13.8 0-19zm-420.1-235.7c0-91.2 74.2-165.3 165.3-165.3 91.2 0 165.3 74.2 165.3 165.3s-74.1 165.4-165.3 165.4c-91.1 0-165.3-74.2-165.3-165.4z" style="stroke-width:32.211"/>
   </g>
  </g>
 </g>
</svg>
