<svg width="16" height="16" version="1.1" viewBox="0 0 16 16.000001" xmlns="http://www.w3.org/2000/svg">
 <g transform="translate(0 -1106.5)">
  <g transform="matrix(.032813 0 0 .032813 1 1107.5)" style="stroke-width:30.476">
   <g style="stroke-width:30.476">
    <g style="stroke-width:30.476">
     <rect x="192" y="298.67" width="42.667" height="42.667" style="stroke-width:30.476"/>
    </g>
   </g>
   <g style="stroke-width:30.476">
    <g style="stroke-width:30.476">
     <path d="m213.33 0c-117.82 0-213.33 95.513-213.33 213.33s95.513 213.33 213.33 213.33 213.33-95.513 213.33-213.33-95.512-213.33-213.33-213.33zm0 388.05c-96.495 0-174.72-78.225-174.72-174.72s78.225-174.72 174.72-174.72c96.446 0.117 174.6 78.273 174.72 174.72 0 96.496-78.224 174.72-174.72 174.72z" style="stroke-width:30.476"/>
    </g>
   </g>
   <g style="stroke-width:30.476">
    <g style="stroke-width:30.476">
     <path d="m296.32 150.4c-10.974-45.833-57.025-74.091-102.86-63.117-38.533 9.226-65.646 43.762-65.462 83.384h42.667c2.003-23.564 22.729-41.043 46.293-39.04s41.043 22.729 39.04 46.293c-4.358 21.204-23.38 36.169-45.013 35.413-10.486 0-18.987 8.501-18.987 18.987v45.013h42.667v-24.32c45.12-11.635 72.565-57.312 61.653-102.61z" style="stroke-width:30.476"/>
    </g>
   </g>
  </g>
  <g transform="translate(-320.88 297.45)">
   <path d="m154.87 69.605c-10.441-3.48-22.621 0-31.322 6.96s-13.921 17.401-13.921 29.582c0 5.22 3.48 8.701 8.701 8.701 5.22 0 8.701-3.48 8.701-8.701 0-5.22 1.74-12.181 6.96-15.661s10.441-5.22 17.401-3.48c8.701 1.74 13.921 8.701 15.661 15.661 1.74 8.701 0 15.661-6.96 20.882-13.921 10.441-20.882 26.102-20.882 41.763 0 5.22 3.48 8.701 8.701 8.701 5.22 0 8.701-3.48 6.96-8.701 0-10.441 6.96-20.882 15.661-27.842 12.181-10.441 17.401-24.362 13.921-38.283-3.481-15.661-15.661-26.102-29.582-29.582z"/>
   <path d="m140.95 210.56c-1.74 1.74-1.74 5.22-1.74 6.96s0 3.48 1.74 5.22 5.22 3.48 6.96 3.48 5.22-1.74 5.22-3.48c1.74 0 3.48-3.48 3.48-5.22 0-3.48-1.74-5.22-3.48-6.96-3.48-3.481-8.7-3.481-12.18 0z"/>
   <path d="m147.91 0c-81.786 0-147.91 66.124-147.91 147.91s66.124 147.91 147.91 147.91 147.91-66.124 147.91-147.91-66.124-147.91-147.91-147.91zm0 278.42c-71.345 0-130.51-59.164-130.51-130.51s59.164-130.51 130.51-130.51 130.51 59.164 130.51 130.51-59.164 130.51-130.51 130.51z"/>
  </g>
 </g>
</svg>
