<svg width="16" height="16" version="1.1" viewBox="0 0 16 16.000001" xmlns="http://www.w3.org/2000/svg">
 <g transform="translate(0 -1106.5)">
  <g transform="matrix(.96068 0 0 .96068 1 1107.5)" style="stroke-width:1.0409">
   <g style="stroke-width:1.0409">
    <g style="stroke-width:1.0409">
     <path d="m7.286 14.573c-1.736 0-3.368-0.676-4.596-1.903-1.227-1.228-1.904-2.86-1.904-4.597s0.677-3.369 1.904-4.597c0.391-0.391 1.023-0.391 1.414 0s0.391 1.023 0 1.414c-0.85 0.851-1.318 1.981-1.318 3.183s0.468 2.333 1.318 3.183 1.979 1.317 3.182 1.317 2.332-0.468 3.182-1.317c0.851-0.85 1.318-1.98 1.318-3.183s-0.468-2.333-1.317-3.183c-0.391-0.391-0.391-1.023 0-1.414s1.023-0.391 1.414 0c1.227 1.229 1.904 2.861 1.904 4.597s-0.677 3.369-1.904 4.597c-1.228 1.227-2.86 1.903-4.597 1.903z" style="stroke-width:1.0409"/>
    </g>
    <g style="stroke-width:1.0409">
     <path d="m7.286 7c-0.553 0-1-0.448-1-1v-5c0-0.552 0.447-1 1-1s1 0.448 1 1v5c0 0.552-0.446 1-1 1z" style="stroke-width:1.0409"/>
    </g>
   </g>
  </g>
  <g transform="translate(-320.88 297.45)">
   <path d="m154.87 69.605c-10.441-3.48-22.621 0-31.322 6.96s-13.921 17.401-13.921 29.582c0 5.22 3.48 8.701 8.701 8.701 5.22 0 8.701-3.48 8.701-8.701 0-5.22 1.74-12.181 6.96-15.661s10.441-5.22 17.401-3.48c8.701 1.74 13.921 8.701 15.661 15.661 1.74 8.701 0 15.661-6.96 20.882-13.921 10.441-20.882 26.102-20.882 41.763 0 5.22 3.48 8.701 8.701 8.701 5.22 0 8.701-3.48 6.96-8.701 0-10.441 6.96-20.882 15.661-27.842 12.181-10.441 17.401-24.362 13.921-38.283-3.481-15.661-15.661-26.102-29.582-29.582z"/>
   <path d="m140.95 210.56c-1.74 1.74-1.74 5.22-1.74 6.96s0 3.48 1.74 5.22 5.22 3.48 6.96 3.48 5.22-1.74 5.22-3.48c1.74 0 3.48-3.48 3.48-5.22 0-3.48-1.74-5.22-3.48-6.96-3.48-3.481-8.7-3.481-12.18 0z"/>
   <path d="m147.91 0c-81.786 0-147.91 66.124-147.91 147.91s66.124 147.91 147.91 147.91 147.91-66.124 147.91-147.91-66.124-147.91-147.91-147.91zm0 278.42c-71.345 0-130.51-59.164-130.51-130.51s59.164-130.51 130.51-130.51 130.51 59.164 130.51 130.51-59.164 130.51-130.51 130.51z"/>
  </g>
 </g>
</svg>
