<svg width="16" height="16" version="1.1" viewBox="0 0 16 16.000001" xmlns="http://www.w3.org/2000/svg">
 <g transform="translate(0 -1106.5)">
  <g transform="matrix(.60171 0 0 .58334 .17778 1106.9)" style="stroke-width:1.6879">
   <g style="display:none;stroke-width:1.6879">
    <g transform="matrix(.049659 0 0 .049659 1 1)" style="stroke-width:1.6879">
     <path d="m424.3 57.75h-365.2c-32.6 0-59.1 26.5-59.1 59.1v249.6c0 32.6 26.5 59.1 59.1 59.1h365.1c32.6 0 59.1-26.5 59.1-59.1v-249.5c0.1-32.6-26.4-59.2-59-59.2zm32.1 308.7c0 17.7-14.4 32.1-32.1 32.1h-365.2c-17.7 0-32.1-14.4-32.1-32.1v-249.5c0-17.7 14.4-32.1 32.1-32.1h365.1c17.7 0 32.1 14.4 32.1 32.1v249.5z" style="stroke-width:1.6879"/>
     <path d="m304.8 238.55 118.2-106c5.5-5 6-13.5 1-19.1-5-5.5-13.5-6-19.1-1l-163 146.3-31.8-28.4c-0.1-0.1-0.2-0.2-0.2-0.3-0.7-0.7-1.4-1.3-2.2-1.9l-129.4-115.8c-5.6-5-14.1-4.5-19.1 1.1s-4.5 14.1 1.1 19.1l119.6 106.9-119.1 111.5c-5.4 5.1-5.7 13.6-0.6 19.1 2.7 2.8 6.3 4.3 9.9 4.3 3.3 0 6.6-1.2 9.2-3.6l120.9-113.1 32.8 29.3c2.6 2.3 5.8 3.4 9 3.4s6.5-1.2 9-3.5l33.7-30.2 120.2 114.2c2.6 2.5 6 3.7 9.3 3.7 3.6 0 7.1-1.4 9.8-4.2 5.1-5.4 4.9-14-0.5-19.1z" style="stroke-width:1.6879"/>
    </g>
   </g>
   <g style="stroke-width:1.6879">
    <g transform="matrix(.046875 0 0 .046875 1 1)" style="stroke-width:1.6879">
     <path d="m444.32 356.52-23.32-15.547v-134.97c0-85.925-66.023-156.71-150-164.31v-26.689c0-8.284-6.716-15-15-15s-15 6.716-15 15v26.689c-83.977 7.604-150 78.386-150 164.31v134.97l-23.32 15.547c-4.174 2.782-6.68 7.464-6.68 12.48v60c0 8.284 6.716 15 15 15h98.875c7.041 38.627 40.726 68 81.125 68 40.398 0 74.084-29.373 81.125-68h98.875c8.284 0 15-6.716 15-15v-60c0-5.016-2.507-9.699-6.68-12.48zm-188.32 125.48c-23.789 0-43.935-16.059-50.359-38h100.72c-6.425 21.941-26.571 38-50.36 38zm165-68h-330v-36.973l23.32-15.547c4.173-2.781 6.68-7.465 6.68-12.48v-143c0-74.439 60.561-135 135-135s135 60.561 135 135v143c0 5.016 2.507 9.699 6.68 12.48l23.32 15.547z" style="stroke-width:1.6879"/>
    </g>
   </g>
   <g style="display:none;stroke-width:1.6879">
    <g transform="matrix(.062343 0 0 .062343 .99997 1)" style="stroke-width:1.6879">
     <path d="m192.48 96.242c26.575 0 48.121-21.546 48.121-48.121s-21.546-48.121-48.121-48.121-48.121 21.546-48.121 48.121 21.546 48.121 48.121 48.121zm0-72.181c13.293 0 24.061 10.779 24.061 24.061s-10.767 24.061-24.061 24.061-24.061-10.767-24.061-24.061 10.767-24.061 24.061-24.061z" style="stroke-width:1.6879"/>
     <path d="m192.48 288.73c-26.575 0-48.121 21.546-48.121 48.121s21.546 48.121 48.121 48.121 48.121-21.546 48.121-48.121c0-26.574-21.546-48.121-48.121-48.121zm0 72.182c-13.293 0-24.061-10.767-24.061-24.061s10.767-24.061 24.061-24.061 24.061 10.779 24.061 24.061-10.768 24.061-24.061 24.061z" style="stroke-width:1.6879"/>
     <path d="m192.48 144.36c-26.575 0-48.121 21.546-48.121 48.121s21.546 48.121 48.121 48.121 48.121-21.546 48.121-48.121-21.546-48.121-48.121-48.121zm0 72.181c-13.293 0-24.061-10.767-24.061-24.061s10.767-24.061 24.061-24.061 24.061 10.779 24.061 24.061c-1e-3 13.282-10.768 24.061-24.061 24.061z" style="stroke-width:1.6879"/>
    </g>
   </g>
  </g>
  <g transform="translate(-320.88 297.45)">
   <path d="m154.87 69.605c-10.441-3.48-22.621 0-31.322 6.96s-13.921 17.401-13.921 29.582c0 5.22 3.48 8.701 8.701 8.701 5.22 0 8.701-3.48 8.701-8.701 0-5.22 1.74-12.181 6.96-15.661s10.441-5.22 17.401-3.48c8.701 1.74 13.921 8.701 15.661 15.661 1.74 8.701 0 15.661-6.96 20.882-13.921 10.441-20.882 26.102-20.882 41.763 0 5.22 3.48 8.701 8.701 8.701 5.22 0 8.701-3.48 6.96-8.701 0-10.441 6.96-20.882 15.661-27.842 12.181-10.441 17.401-24.362 13.921-38.283-3.481-15.661-15.661-26.102-29.582-29.582z"/>
   <path d="m140.95 210.56c-1.74 1.74-1.74 5.22-1.74 6.96s0 3.48 1.74 5.22 5.22 3.48 6.96 3.48 5.22-1.74 5.22-3.48c1.74 0 3.48-3.48 3.48-5.22 0-3.48-1.74-5.22-3.48-6.96-3.48-3.481-8.7-3.481-12.18 0z"/>
   <path d="m147.91 0c-81.786 0-147.91 66.124-147.91 147.91s66.124 147.91 147.91 147.91 147.91-66.124 147.91-147.91-66.124-147.91-147.91-147.91zm0 278.42c-71.345 0-130.51-59.164-130.51-130.51s59.164-130.51 130.51-130.51 130.51 59.164 130.51 130.51-59.164 130.51-130.51 130.51z"/>
  </g>
 </g>
</svg>
