<svg height="682.66669pt" viewBox="-21 -21 682.66669 682.66669" width="682.66669pt" xmlns="http://www.w3.org/2000/svg"><path d="m213.765625 320.015625c.410156 0 .820313-.015625 1.234375-.015625h210c.414062 0 .824219.015625 1.234375.015625l21.867187-174.902344c4.589844-36.730469-6.828124-73.707031-31.320312-101.449219-24.496094-27.75-59.769531-43.664062-96.78125-43.664062s-72.285156 15.914062-96.78125 43.664062c-24.492188 27.742188-35.910156 64.71875-31.320312 101.449219zm0 0"/><path d="m537.675781 438.75c-15.730469-47.15625-60.296875-81.25-112.675781-81.25h-210c-52.378906 0-96.945312 34.09375-112.675781 81.25zm0 0"/><path d="m596.25 640h-552.5c-24.125 0-43.75-19.625-43.75-43.75v-76.25c0-24.125 19.625-43.75 43.75-43.75h552.5c24.125 0 43.75 19.625 43.75 43.75v76.25c0 24.125-19.625 43.75-43.75 43.75zm0 0"/></svg>