<?xml version="1.0" encoding="iso-8859-1"?>
<!-- Generator: Adobe Illustrator 16.0.0, SVG Export Plug-In . SVG Version: 6.00 Build 0)  -->
<!DOCTYPE svg PUBLIC "-//W3C//DTD SVG 1.1//EN" "http://www.w3.org/Graphics/SVG/1.1/DTD/svg11.dtd">
<svg version="1.1" id="Capa_1" xmlns="http://www.w3.org/2000/svg" xmlns:xlink="http://www.w3.org/1999/xlink" x="0px" y="0px"
	 width="100%" height="100%" viewBox="0 0 31.979 31.979" style="enable-background:new 0 0 31.979 31.979;"
	 xml:space="preserve">
<g>
	<circle cx="13.479" cy="4.501" r="4.501"/>
	<path d="M27.248,20.753c-1.396-0.655-2.814-0.925-4.292-1.303c-0.536-0.138,1.149-0.476,1.36-0.521
		c0.629-0.13,1.252-0.271,1.862-0.475c0.563-0.188,1.234-0.618,1.044-1.312c-0.097-0.348-0.393-0.562-0.762-0.711
		c0.122-0.113,0.219-0.25,0.262-0.44c0.063-0.29-0.044-0.541-0.287-0.706c-0.504-0.34-1.168-0.404-1.838-0.44
		c0.088-0.077,0.182-0.149,0.258-0.249c0.141-0.186,0.084-0.442,0-0.632c-0.189-0.419-0.559-0.538-0.984-0.635
		c-0.372-0.084-0.786-0.087-1.16-0.141c0.186,0.026,0.607-0.155,0.831-0.339c1.394-1.14-0.718-1.889-1.61-1.995
		c-0.799-0.096-0.789,1.155,0,1.25c0.875,0.104,0.385-0.038-0.162,0.239c-0.17,0.086-0.356,0.26-0.453,0.423
		c-0.229,0.391-0.127,0.751,0.09,1.101c0.271,0.437,0.904,0.518,1.359,0.582c0.029,0.004,0.047,0.006,0.073,0.01
		c-0.142,0.07-0.28,0.146-0.411,0.246c-0.42,0.324-0.408,0.965,0.149,1.143c0.388,0.123,0.87,0.142,1.36,0.158
		c-0.002,0.001-0.008,0.003-0.01,0.004c-0.529,0.256-0.312,0.975,0.149,1.143c0.362,0.132,0.739,0.217,1.116,0.298
		c-0.279,0.073-0.562,0.137-0.844,0.198c-0.861,0.189-2.222,0.336-2.771,1.119c-0.493,0.701-0.206,1.358,0.537,1.707
		c1.416,0.664,3.053,0.676,4.5,1.357C27.341,22.174,27.977,21.098,27.248,20.753z"/>
	<path d="M29.904,11.48V7.814h-2.957V6.896h-1.893c0.016-0.069,0.043-0.134,0.043-0.208c0-0.574-0.484-1.041-1.082-1.041
		c-0.599,0-1.084,0.467-1.084,1.041c0,0.074,0.028,0.139,0.043,0.208h-1.82v0.918h-3.416v1.87L17.65,9.68h-2.534l-1.716,1.99
		l-1.66-1.99l-3.643,0.492l-2.739,6.225l-1.8-1.892l-2.723-1.276l0.962,2.888l4.395,4.628L6.19,20.748l1.41,1.479l1.74-1.658
		L7.93,19.09l-0.002,0.003l-1.242-1.304l2.559-5.371l0.244,7.71h0.236v1.026v0.755v8.014H9.414l-1.807,0.392v1.664h1.539
		l1.796-0.293l0.016,0.293h1.988v-1.854v-0.2V21.91h1.133v8.014v0.2v1.854h1.99l0.015-0.293l1.795,0.293h1.539v-1.664l-1.807-0.392
		h-0.31v-8.014v-0.755v-1.026h0.286l0.152-2.969v6.987h12.166v-9.167h1.236V11.48H29.904z M2.838,15.445L2.173,15.31l-0.027,0.864
		l-0.144-0.15l-0.548-1.648l0.431-0.41l1.527,0.711l0.199,0.209l-0.91-0.076L2.838,15.445z M8.184,20.007l0.522,0.548l-1.092,1.039
		l-0.521-0.547L8.184,20.007z M24.025,6.298c0.242,0,0.438,0.195,0.438,0.438c0,0.243-0.196,0.438-0.438,0.438
		c-0.241,0-0.438-0.195-0.438-0.438C23.588,6.493,23.785,6.298,24.025,6.298z M28.904,11.48h-0.791v3.499h0.791v8.167H18.738V8.814
		h2.418v0.708h5.791V8.814h1.959v2.666H28.904z"/>
</g>
<g>
</g>
<g>
</g>
<g>
</g>
<g>
</g>
<g>
</g>
<g>
</g>
<g>
</g>
<g>
</g>
<g>
</g>
<g>
</g>
<g>
</g>
<g>
</g>
<g>
</g>
<g>
</g>
<g>
</g>
</svg>
