<svg width="16" height="16" version="1.1" viewBox="0 0 16 16.000001" xmlns="http://www.w3.org/2000/svg">
 <g transform="translate(0 -1106.5)">
  <g transform="matrix(.027344 0 0 .027344 1 1107.5)" style="stroke-width:36.571">
   <g style="stroke-width:36.571">
    <g style="stroke-width:36.571">
     <g style="stroke-width:36.571">
      <path d="m248.16 343.22c-14.639 0-26.491 12.2-26.491 26.84 0 14.291 11.503 26.84 26.491 26.84s26.84-12.548 26.84-26.84c0-14.64-12.199-26.84-26.84-26.84z" style="stroke-width:36.571"/>
      <path d="m252.69 140c-47.057 0-68.668 27.885-68.668 46.708 0 13.595 11.502 19.869 20.914 19.869 18.822 0 11.154-26.84 46.708-26.84 17.429 0 31.372 7.669 31.372 23.703 0 18.824-19.52 29.629-31.023 39.389-10.108 8.714-23.354 23.006-23.354 52.983 0 18.125 4.879 23.354 19.171 23.354 17.08 0 20.565-7.668 20.565-14.291 0-18.126 0.35-28.583 19.521-43.571 9.411-7.32 39.04-31.023 39.04-63.789s-29.629-57.515-74.246-57.515z" style="stroke-width:36.571"/>
      <path d="m256 0c-141.48 0-256 114.5-256 256v236c0 11.046 8.954 20 20 20h236c141.48 0 256-114.5 256-256 0-141.48-114.5-256-256-256zm0 472h-216v-216c0-119.38 96.607-216 216-216 119.38 0 216 96.607 216 216 0 119.38-96.607 216-216 216z" style="stroke-width:36.571"/>
     </g>
    </g>
   </g>
  </g>
  <g transform="translate(-320.88 297.45)">
   <path d="m154.87 69.605c-10.441-3.48-22.621 0-31.322 6.96s-13.921 17.401-13.921 29.582c0 5.22 3.48 8.701 8.701 8.701 5.22 0 8.701-3.48 8.701-8.701 0-5.22 1.74-12.181 6.96-15.661s10.441-5.22 17.401-3.48c8.701 1.74 13.921 8.701 15.661 15.661 1.74 8.701 0 15.661-6.96 20.882-13.921 10.441-20.882 26.102-20.882 41.763 0 5.22 3.48 8.701 8.701 8.701 5.22 0 8.701-3.48 6.96-8.701 0-10.441 6.96-20.882 15.661-27.842 12.181-10.441 17.401-24.362 13.921-38.283-3.481-15.661-15.661-26.102-29.582-29.582z"/>
   <path d="m140.95 210.56c-1.74 1.74-1.74 5.22-1.74 6.96s0 3.48 1.74 5.22 5.22 3.48 6.96 3.48 5.22-1.74 5.22-3.48c1.74 0 3.48-3.48 3.48-5.22 0-3.48-1.74-5.22-3.48-6.96-3.48-3.481-8.7-3.481-12.18 0z"/>
   <path d="m147.91 0c-81.786 0-147.91 66.124-147.91 147.91s66.124 147.91 147.91 147.91 147.91-66.124 147.91-147.91-66.124-147.91-147.91-147.91zm0 278.42c-71.345 0-130.51-59.164-130.51-130.51s59.164-130.51 130.51-130.51 130.51 59.164 130.51 130.51-59.164 130.51-130.51 130.51z"/>
  </g>
 </g>
</svg>
