<svg width="16" height="16" version="1.1" viewBox="0 0 16 16.000001" xmlns="http://www.w3.org/2000/svg">
 <g transform="translate(0 -1106.5)">
  <g transform="matrix(.027344 0 0 .027344 1 1107.5)" style="stroke-width:36.571">
   <g style="stroke-width:36.571">
    <g style="stroke-width:36.571">
     <g style="stroke-width:36.571">
      <path d="m349.85 62.196c-10.797-4.717-23.373 0.212-28.09 11.009s0.212 23.373 11.009 28.09c69.412 30.324 115.23 98.977 115.23 176.04 0 106.03-85.972 192-192 192-106.04 0-192-85.958-192-192 0-77.041 45.8-145.69 115.19-176.04 10.795-4.72 15.72-17.298 10.999-28.093-4.72-10.795-17.298-15.72-28.093-10.999-84.789 37.075-140.76 120.98-140.76 215.13 0 129.61 105.06 234.67 234.67 234.67 129.59 0 234.67-105.07 234.67-234.67 0-94.17-55.998-178.08-140.82-215.13z" style="stroke-width:36.571"/>
      <path d="m255.99 234.67c11.782 0 21.333-9.551 21.333-21.333v-192c1e-3 -11.783-9.551-21.334-21.333-21.334s-21.333 9.551-21.333 21.333v192c0 11.782 9.551 21.334 21.333 21.334z" style="stroke-width:36.571"/>
     </g>
    </g>
   </g>
  </g>
  <g transform="translate(-320.88 297.45)">
   <path d="m154.87 69.605c-10.441-3.48-22.621 0-31.322 6.96s-13.921 17.401-13.921 29.582c0 5.22 3.48 8.701 8.701 8.701 5.22 0 8.701-3.48 8.701-8.701 0-5.22 1.74-12.181 6.96-15.661s10.441-5.22 17.401-3.48c8.701 1.74 13.921 8.701 15.661 15.661 1.74 8.701 0 15.661-6.96 20.882-13.921 10.441-20.882 26.102-20.882 41.763 0 5.22 3.48 8.701 8.701 8.701 5.22 0 8.701-3.48 6.96-8.701 0-10.441 6.96-20.882 15.661-27.842 12.181-10.441 17.401-24.362 13.921-38.283-3.481-15.661-15.661-26.102-29.582-29.582z"/>
   <path d="m140.95 210.56c-1.74 1.74-1.74 5.22-1.74 6.96s0 3.48 1.74 5.22 5.22 3.48 6.96 3.48 5.22-1.74 5.22-3.48c1.74 0 3.48-3.48 3.48-5.22 0-3.48-1.74-5.22-3.48-6.96-3.48-3.481-8.7-3.481-12.18 0z"/>
   <path d="m147.91 0c-81.786 0-147.91 66.124-147.91 147.91s66.124 147.91 147.91 147.91 147.91-66.124 147.91-147.91-66.124-147.91-147.91-147.91zm0 278.42c-71.345 0-130.51-59.164-130.51-130.51s59.164-130.51 130.51-130.51 130.51 59.164 130.51 130.51-59.164 130.51-130.51 130.51z"/>
  </g>
 </g>
</svg>
